<svg xmlns="http://www.w3.org/2000/svg" xmlns:xlink="http://www.w3.org/1999/xlink" width="139" zoomAndPan="magnify" viewBox="0 0 104.25 31.5" height="42" preserveAspectRatio="xMidYMid meet" version="1.2"><defs><clipPath id="92265b28f8"><path d="M 5 5 L 16 5 L 16 16 L 5 16 Z M 5 5 "/></clipPath><clipPath id="ee307c5287"><path d="M 5.640625 11.722656 L 12.585938 5.191406 L 15.699219 8.503906 L 8.753906 15.035156 Z M 5.640625 11.722656 "/></clipPath><clipPath id="3a6986aa49"><path d="M 10.667969 0 L 21.058594 0 L 21.058594 10.390625 L 10.667969 10.390625 Z M 10.667969 0 "/></clipPath><clipPath id="a78d8c28f0"><path d="M 15.863281 0 C 12.996094 0 10.667969 2.324219 10.667969 5.195312 C 10.667969 8.0625 12.996094 10.390625 15.863281 10.390625 C 18.730469 10.390625 21.058594 8.0625 21.058594 5.195312 C 21.058594 2.324219 18.730469 0 15.863281 0 Z M 15.863281 0 "/></clipPath><clipPath id="c714929626"><path d="M 0.445312 9.84375 L 10.835938 9.84375 L 10.835938 20.230469 L 0.445312 20.230469 Z M 0.445312 9.84375 "/></clipPath><clipPath id="746549ee3a"><path d="M 5.640625 9.84375 C 2.769531 9.84375 0.445312 12.167969 0.445312 15.035156 C 0.445312 17.90625 2.769531 20.230469 5.640625 20.230469 C 8.507812 20.230469 10.835938 17.90625 10.835938 15.035156 C 10.835938 12.167969 8.507812 9.84375 5.640625 9.84375 Z M 5.640625 9.84375 "/></clipPath><clipPath id="0e2459fdba"><path d="M 4.027344 13.425781 L 7.25 13.425781 L 7.25 16.648438 L 4.027344 16.648438 Z M 4.027344 13.425781 "/></clipPath><clipPath id="ece5366abc"><path d="M 5.640625 13.425781 C 4.75 13.425781 4.027344 14.144531 4.027344 15.035156 C 4.027344 15.925781 4.75 16.648438 5.640625 16.648438 C 6.53125 16.648438 7.25 15.925781 7.25 15.035156 C 7.25 14.144531 6.53125 13.425781 5.640625 13.425781 Z M 5.640625 13.425781 "/></clipPath><clipPath id="2bc50a11dd"><path d="M 16 15 L 27 15 L 27 26 L 16 26 Z M 16 15 "/></clipPath><clipPath id="f1c9497e66"><path d="M 26.25 18.894531 L 19.304688 25.425781 L 16.191406 22.113281 L 23.132812 15.582031 Z M 26.25 18.894531 "/></clipPath><clipPath id="2c4464abac"><path d="M 10.828125 20.222656 L 21.214844 20.222656 L 21.214844 30.613281 L 10.828125 30.613281 Z M 10.828125 20.222656 "/></clipPath><clipPath id="d03f2b9d0b"><path d="M 16.023438 30.613281 C 18.890625 30.613281 21.214844 28.285156 21.214844 25.417969 C 21.214844 22.550781 18.890625 20.222656 16.023438 20.222656 C 13.152344 20.222656 10.828125 22.550781 10.828125 25.417969 C 10.828125 28.285156 13.152344 30.613281 16.023438 30.613281 Z M 16.023438 30.613281 "/></clipPath><clipPath id="11b8eaf4a3"><path d="M 21.050781 10.382812 L 31.441406 10.382812 L 31.441406 20.769531 L 21.050781 20.769531 Z M 21.050781 10.382812 "/></clipPath><clipPath id="c8aaab5394"><path d="M 26.246094 20.769531 C 29.113281 20.769531 31.441406 18.445312 31.441406 15.578125 C 31.441406 12.707031 29.113281 10.382812 26.246094 10.382812 C 23.375 10.382812 21.050781 12.707031 21.050781 15.578125 C 21.050781 18.445312 23.375 20.769531 26.246094 20.769531 Z M 26.246094 20.769531 "/></clipPath><clipPath id="ff3ac2dce5"><path d="M 24.636719 13.96875 L 27.859375 13.96875 L 27.859375 17.191406 L 24.636719 17.191406 Z M 24.636719 13.96875 "/></clipPath><clipPath id="4631478af0"><path d="M 26.25 17.191406 C 27.136719 17.191406 27.859375 16.46875 27.859375 15.578125 C 27.859375 14.6875 27.136719 13.96875 26.25 13.96875 C 25.359375 13.96875 24.636719 14.6875 24.636719 15.578125 C 24.636719 16.46875 25.359375 17.191406 26.25 17.191406 Z M 26.25 17.191406 "/></clipPath></defs><g id="d4e86f6019"><g clip-rule="nonzero" clip-path="url(#92265b28f8)"><g clip-rule="nonzero" clip-path="url(#ee307c5287)"><path style=" stroke:none;fill-rule:nonzero;fill:#ff6523;fill-opacity:1;" d="M 5.640625 11.722656 L 12.589844 5.1875 L 15.703125 8.5 L 8.753906 15.035156 Z M 5.640625 11.722656 "/></g></g><g clip-rule="nonzero" clip-path="url(#3a6986aa49)"><g clip-rule="nonzero" clip-path="url(#a78d8c28f0)"><path style=" stroke:none;fill-rule:nonzero;fill:#ff6523;fill-opacity:1;" d="M 10.667969 0 L 21.058594 0 L 21.058594 10.390625 L 10.667969 10.390625 Z M 10.667969 0 "/></g></g><g clip-rule="nonzero" clip-path="url(#c714929626)"><g clip-rule="nonzero" clip-path="url(#746549ee3a)"><path style=" stroke:none;fill-rule:nonzero;fill:#ff6523;fill-opacity:1;" d="M 0.445312 9.84375 L 10.835938 9.84375 L 10.835938 20.230469 L 0.445312 20.230469 Z M 0.445312 9.84375 "/></g></g><g clip-rule="nonzero" clip-path="url(#0e2459fdba)"><g clip-rule="nonzero" clip-path="url(#ece5366abc)"><path style=" stroke:none;fill-rule:nonzero;fill:#000000;fill-opacity:1;" d="M 4.027344 13.425781 L 7.25 13.425781 L 7.25 16.648438 L 4.027344 16.648438 Z M 4.027344 13.425781 "/></g></g><g clip-rule="nonzero" clip-path="url(#2bc50a11dd)"><g clip-rule="nonzero" clip-path="url(#f1c9497e66)"><path style=" stroke:none;fill-rule:nonzero;fill:#ff6523;fill-opacity:1;" d="M 26.25 18.894531 L 19.300781 25.429688 L 16.183594 22.117188 L 23.132812 15.582031 Z M 26.25 18.894531 "/></g></g><g clip-rule="nonzero" clip-path="url(#2c4464abac)"><g clip-rule="nonzero" clip-path="url(#d03f2b9d0b)"><path style=" stroke:none;fill-rule:nonzero;fill:#ff6523;fill-opacity:1;" d="M 21.214844 30.613281 L 10.828125 30.613281 L 10.828125 20.222656 L 21.214844 20.222656 Z M 21.214844 30.613281 "/></g></g><g clip-rule="nonzero" clip-path="url(#11b8eaf4a3)"><g clip-rule="nonzero" clip-path="url(#c8aaab5394)"><path style=" stroke:none;fill-rule:nonzero;fill:#ff6523;fill-opacity:1;" d="M 31.441406 20.769531 L 21.050781 20.769531 L 21.050781 10.382812 L 31.441406 10.382812 Z M 31.441406 20.769531 "/></g></g><g clip-rule="nonzero" clip-path="url(#ff3ac2dce5)"><g clip-rule="nonzero" clip-path="url(#4631478af0)"><path style=" stroke:none;fill-rule:nonzero;fill:#000000;fill-opacity:1;" d="M 27.859375 17.191406 L 24.636719 17.191406 L 24.636719 13.96875 L 27.859375 13.96875 Z M 27.859375 17.191406 "/></g></g><g style="fill:#ffffff;fill-opacity:1;"><g transform="translate(34.787407, 19.540934)"><path style="stroke:none" d="M 4.796875 0.203125 C 4.023438 0.203125 3.335938 0.015625 2.734375 -0.359375 C 2.140625 -0.734375 1.664062 -1.238281 1.3125 -1.875 C 0.96875 -2.519531 0.796875 -3.253906 0.796875 -4.078125 C 0.796875 -4.890625 0.96875 -5.613281 1.3125 -6.25 C 1.664062 -6.894531 2.140625 -7.398438 2.734375 -7.765625 C 3.335938 -8.128906 4.023438 -8.3125 4.796875 -8.3125 C 5.398438 -8.3125 5.929688 -8.195312 6.390625 -7.96875 C 6.847656 -7.738281 7.222656 -7.414062 7.515625 -7 L 7.515625 -11.78125 L 9.609375 -11.78125 L 9.609375 0 L 7.734375 0 L 7.515625 -1.15625 C 7.242188 -0.800781 6.894531 -0.484375 6.46875 -0.203125 C 6.039062 0.0664062 5.484375 0.203125 4.796875 0.203125 Z M 5.234375 -1.640625 C 5.910156 -1.640625 6.460938 -1.863281 6.890625 -2.3125 C 7.328125 -2.769531 7.546875 -3.351562 7.546875 -4.0625 C 7.546875 -4.769531 7.328125 -5.347656 6.890625 -5.796875 C 6.460938 -6.253906 5.910156 -6.484375 5.234375 -6.484375 C 4.566406 -6.484375 4.015625 -6.257812 3.578125 -5.8125 C 3.140625 -5.363281 2.921875 -4.785156 2.921875 -4.078125 C 2.921875 -3.367188 3.140625 -2.785156 3.578125 -2.328125 C 4.015625 -1.867188 4.566406 -1.640625 5.234375 -1.640625 Z M 5.234375 -1.640625 "/></g></g><g style="fill:#ffffff;fill-opacity:1;"><g transform="translate(45.455941, 19.540934)"><path style="stroke:none" d="M 5 0.203125 C 4.1875 0.203125 3.460938 0.03125 2.828125 -0.3125 C 2.191406 -0.664062 1.691406 -1.160156 1.328125 -1.796875 C 0.972656 -2.429688 0.796875 -3.160156 0.796875 -3.984375 C 0.796875 -4.828125 0.972656 -5.578125 1.328125 -6.234375 C 1.679688 -6.890625 2.171875 -7.398438 2.796875 -7.765625 C 3.429688 -8.128906 4.171875 -8.3125 5.015625 -8.3125 C 5.816406 -8.3125 6.519531 -8.132812 7.125 -7.78125 C 7.738281 -7.4375 8.21875 -6.960938 8.5625 -6.359375 C 8.90625 -5.753906 9.078125 -5.078125 9.078125 -4.328125 C 9.078125 -4.210938 9.070312 -4.085938 9.0625 -3.953125 C 9.0625 -3.828125 9.054688 -3.691406 9.046875 -3.546875 L 2.875 -3.546875 C 2.914062 -2.910156 3.132812 -2.410156 3.53125 -2.046875 C 3.9375 -1.691406 4.421875 -1.515625 4.984375 -1.515625 C 5.410156 -1.515625 5.769531 -1.609375 6.0625 -1.796875 C 6.351562 -1.992188 6.566406 -2.242188 6.703125 -2.546875 L 8.828125 -2.546875 C 8.679688 -2.035156 8.429688 -1.570312 8.078125 -1.15625 C 7.722656 -0.738281 7.285156 -0.40625 6.765625 -0.15625 C 6.242188 0.0820312 5.65625 0.203125 5 0.203125 Z M 5.015625 -6.609375 C 4.503906 -6.609375 4.050781 -6.460938 3.65625 -6.171875 C 3.269531 -5.878906 3.019531 -5.441406 2.90625 -4.859375 L 6.953125 -4.859375 C 6.921875 -5.390625 6.722656 -5.8125 6.359375 -6.125 C 6.003906 -6.445312 5.554688 -6.609375 5.015625 -6.609375 Z M 5.015625 -6.609375 "/></g></g><g style="fill:#ffffff;fill-opacity:1;"><g transform="translate(54.913609, 19.540934)"><path style="stroke:none" d="M 3.25 0 L 0.28125 -8.109375 L 2.46875 -8.109375 L 4.53125 -1.984375 L 6.59375 -8.109375 L 8.78125 -8.109375 L 5.796875 0 Z M 3.25 0 "/></g></g><g style="fill:#ffffff;fill-opacity:1;"><g transform="translate(63.962227, 19.540934)"><path style="stroke:none" d="M 2.1875 -9.375 C 1.8125 -9.375 1.5 -9.488281 1.25 -9.71875 C 1.007812 -9.945312 0.890625 -10.234375 0.890625 -10.578125 C 0.890625 -10.929688 1.007812 -11.21875 1.25 -11.4375 C 1.5 -11.664062 1.8125 -11.78125 2.1875 -11.78125 C 2.570312 -11.78125 2.882812 -11.664062 3.125 -11.4375 C 3.375 -11.21875 3.5 -10.929688 3.5 -10.578125 C 3.5 -10.234375 3.375 -9.945312 3.125 -9.71875 C 2.882812 -9.488281 2.570312 -9.375 2.1875 -9.375 Z M 1.140625 0 L 1.140625 -8.109375 L 3.234375 -8.109375 L 3.234375 0 Z M 1.140625 0 "/></g></g><g style="fill:#ffffff;fill-opacity:1;"><g transform="translate(68.331088, 19.540934)"><path style="stroke:none" d="M 1.0625 0 L 1.0625 -8.109375 L 2.90625 -8.109375 L 3.078125 -6.734375 C 3.328125 -7.210938 3.6875 -7.59375 4.15625 -7.875 C 4.632812 -8.164062 5.195312 -8.3125 5.84375 -8.3125 C 6.84375 -8.3125 7.617188 -7.992188 8.171875 -7.359375 C 8.734375 -6.722656 9.015625 -5.796875 9.015625 -4.578125 L 9.015625 0 L 6.921875 0 L 6.921875 -4.390625 C 6.921875 -5.085938 6.773438 -5.617188 6.484375 -5.984375 C 6.203125 -6.359375 5.765625 -6.546875 5.171875 -6.546875 C 4.578125 -6.546875 4.09375 -6.335938 3.71875 -5.921875 C 3.34375 -5.503906 3.15625 -4.925781 3.15625 -4.1875 L 3.15625 0 Z M 1.0625 0 "/></g></g><g style="fill:#ffffff;fill-opacity:1;"><g transform="translate(78.279659, 19.540934)"><path style="stroke:none" d="M 2.1875 -9.375 C 1.8125 -9.375 1.5 -9.488281 1.25 -9.71875 C 1.007812 -9.945312 0.890625 -10.234375 0.890625 -10.578125 C 0.890625 -10.929688 1.007812 -11.21875 1.25 -11.4375 C 1.5 -11.664062 1.8125 -11.78125 2.1875 -11.78125 C 2.570312 -11.78125 2.882812 -11.664062 3.125 -11.4375 C 3.375 -11.21875 3.5 -10.929688 3.5 -10.578125 C 3.5 -10.234375 3.375 -9.945312 3.125 -9.71875 C 2.882812 -9.488281 2.570312 -9.375 2.1875 -9.375 Z M 1.140625 0 L 1.140625 -8.109375 L 3.234375 -8.109375 L 3.234375 0 Z M 1.140625 0 "/></g></g><g style="fill:#ffffff;fill-opacity:1;"><g transform="translate(82.64852, 19.540934)"><path style="stroke:none" d="M 4.671875 0 C 3.828125 0 3.144531 -0.207031 2.625 -0.625 C 2.113281 -1.039062 1.859375 -1.773438 1.859375 -2.828125 L 1.859375 -6.359375 L 0.46875 -6.359375 L 0.46875 -8.109375 L 1.859375 -8.109375 L 2.109375 -10.296875 L 3.953125 -10.296875 L 3.953125 -8.109375 L 6.15625 -8.109375 L 6.15625 -6.359375 L 3.953125 -6.359375 L 3.953125 -2.8125 C 3.953125 -2.414062 4.035156 -2.144531 4.203125 -2 C 4.378906 -1.851562 4.675781 -1.78125 5.09375 -1.78125 L 6.109375 -1.78125 L 6.109375 0 Z M 4.671875 0 "/></g></g><g style="fill:#ffffff;fill-opacity:1;"><g transform="translate(89.537253, 19.540934)"><path style="stroke:none" d="M 2.078125 3.59375 L 3.953125 -0.546875 L 3.46875 -0.546875 L 0.3125 -8.109375 L 2.578125 -8.109375 L 4.859375 -2.40625 L 7.234375 -8.109375 L 9.453125 -8.109375 L 4.296875 3.59375 Z M 2.078125 3.59375 "/></g></g></g></svg>