<svg xmlns="http://www.w3.org/2000/svg" xmlns:xlink="http://www.w3.org/1999/xlink" width="523" zoomAndPan="magnify" viewBox="0 0 392.25 116.999995" height="156" preserveAspectRatio="xMidYMid meet" version="1.2"><defs><clipPath id="db3ddf9bc6"><path d="M 19 19 L 59 19 L 59 58 L 19 58 Z M 19 19 "/></clipPath><clipPath id="27d6b6aedb"><path d="M 19.808594 44.8125 L 46.289062 19.917969 L 58.167969 32.546875 L 31.683594 57.445312 Z M 19.808594 44.8125 "/></clipPath><clipPath id="75c77484df"><path d="M 38.988281 0.113281 L 78.601562 0.113281 L 78.601562 39.726562 L 38.988281 39.726562 Z M 38.988281 0.113281 "/></clipPath><clipPath id="0362291fe0"><path d="M 58.792969 0.113281 C 47.855469 0.113281 38.988281 8.980469 38.988281 19.917969 C 38.988281 30.859375 47.855469 39.726562 58.792969 39.726562 C 69.734375 39.726562 78.601562 30.859375 78.601562 19.917969 C 78.601562 8.980469 69.734375 0.113281 58.792969 0.113281 Z M 58.792969 0.113281 "/></clipPath><clipPath id="35b58d73b2"><path d="M 0 37.640625 L 39.613281 37.640625 L 39.613281 77.257812 L 0 77.257812 Z M 0 37.640625 "/></clipPath><clipPath id="222cd50459"><path d="M 19.808594 37.640625 C 8.867188 37.640625 0 46.507812 0 57.449219 C 0 68.386719 8.867188 77.257812 19.808594 77.257812 C 30.746094 77.257812 39.613281 68.386719 39.613281 57.449219 C 39.613281 46.507812 30.746094 37.640625 19.808594 37.640625 Z M 19.808594 37.640625 "/></clipPath><clipPath id="9a472934c2"><path d="M 13.664062 51.304688 L 25.953125 51.304688 L 25.953125 63.59375 L 13.664062 63.59375 Z M 13.664062 51.304688 "/></clipPath><clipPath id="48e72f1eea"><path d="M 19.808594 51.304688 C 16.414062 51.304688 13.664062 54.054688 13.664062 57.449219 C 13.664062 60.84375 16.414062 63.59375 19.808594 63.59375 C 23.199219 63.59375 25.953125 60.84375 25.953125 57.449219 C 25.953125 54.054688 23.199219 51.304688 19.808594 51.304688 Z M 19.808594 51.304688 "/></clipPath><clipPath id="4e42250c41"><path d="M 60 59 L 99 59 L 99 98 L 60 98 Z M 60 59 "/></clipPath><clipPath id="964e3771ac"><path d="M 98.402344 72.164062 L 71.921875 97.0625 L 60.042969 84.429688 L 86.523438 59.53125 Z M 98.402344 72.164062 "/></clipPath><clipPath id="0ec2a7d62b"><path d="M 39.605469 77.246094 L 79.21875 77.246094 L 79.21875 116.859375 L 39.605469 116.859375 Z M 39.605469 77.246094 "/></clipPath><clipPath id="bf84a0d33f"><path d="M 59.410156 116.859375 C 70.351562 116.859375 79.21875 107.992188 79.21875 97.054688 C 79.21875 86.113281 70.351562 77.246094 59.410156 77.246094 C 48.472656 77.246094 39.605469 86.113281 39.605469 97.054688 C 39.605469 107.992188 48.472656 116.859375 59.410156 116.859375 Z M 59.410156 116.859375 "/></clipPath><clipPath id="52b7b91d2c"><path d="M 78.589844 39.714844 L 118.207031 39.714844 L 118.207031 79.332031 L 78.589844 79.332031 Z M 78.589844 39.714844 "/></clipPath><clipPath id="5d13be500d"><path d="M 98.398438 79.332031 C 109.335938 79.332031 118.207031 70.460938 118.207031 59.523438 C 118.207031 48.582031 109.335938 39.714844 98.398438 39.714844 C 87.457031 39.714844 78.589844 48.582031 78.589844 59.523438 C 78.589844 70.460938 87.457031 79.332031 98.398438 79.332031 Z M 98.398438 79.332031 "/></clipPath><clipPath id="c3248756ed"><path d="M 92.257812 53.382812 L 104.546875 53.382812 L 104.546875 65.671875 L 92.257812 65.671875 Z M 92.257812 53.382812 "/></clipPath><clipPath id="741e6e522b"><path d="M 98.402344 65.671875 C 101.796875 65.671875 104.546875 62.921875 104.546875 59.527344 C 104.546875 56.132812 101.796875 53.382812 98.402344 53.382812 C 95.007812 53.382812 92.257812 56.132812 92.257812 59.527344 C 92.257812 62.921875 95.007812 65.671875 98.402344 65.671875 Z M 98.402344 65.671875 "/></clipPath></defs><g id="0bcf8f56d2"><g clip-rule="nonzero" clip-path="url(#db3ddf9bc6)"><g clip-rule="nonzero" clip-path="url(#27d6b6aedb)"><path style=" stroke:none;fill-rule:nonzero;fill:#ff6523;fill-opacity:1;" d="M 19.808594 44.8125 L 46.304688 19.898438 L 58.183594 32.53125 L 31.683594 57.445312 Z M 19.808594 44.8125 "/></g></g><g clip-rule="nonzero" clip-path="url(#75c77484df)"><g clip-rule="nonzero" clip-path="url(#0362291fe0)"><path style=" stroke:none;fill-rule:nonzero;fill:#ff6523;fill-opacity:1;" d="M 38.988281 0.113281 L 78.601562 0.113281 L 78.601562 39.726562 L 38.988281 39.726562 Z M 38.988281 0.113281 "/></g></g><g clip-rule="nonzero" clip-path="url(#35b58d73b2)"><g clip-rule="nonzero" clip-path="url(#222cd50459)"><path style=" stroke:none;fill-rule:nonzero;fill:#ff6523;fill-opacity:1;" d="M 0 37.640625 L 39.613281 37.640625 L 39.613281 77.257812 L 0 77.257812 Z M 0 37.640625 "/></g></g><g clip-rule="nonzero" clip-path="url(#9a472934c2)"><g clip-rule="nonzero" clip-path="url(#48e72f1eea)"><path style=" stroke:none;fill-rule:nonzero;fill:#ffffff;fill-opacity:1;" d="M 13.664062 51.304688 L 25.953125 51.304688 L 25.953125 63.59375 L 13.664062 63.59375 Z M 13.664062 51.304688 "/></g></g><g clip-rule="nonzero" clip-path="url(#4e42250c41)"><g clip-rule="nonzero" clip-path="url(#964e3771ac)"><path style=" stroke:none;fill-rule:nonzero;fill:#ff6523;fill-opacity:1;" d="M 98.402344 72.164062 L 71.902344 97.078125 L 60.027344 84.445312 L 86.523438 59.53125 Z M 98.402344 72.164062 "/></g></g><g clip-rule="nonzero" clip-path="url(#0ec2a7d62b)"><g clip-rule="nonzero" clip-path="url(#bf84a0d33f)"><path style=" stroke:none;fill-rule:nonzero;fill:#ff6523;fill-opacity:1;" d="M 79.21875 116.859375 L 39.605469 116.859375 L 39.605469 77.246094 L 79.21875 77.246094 Z M 79.21875 116.859375 "/></g></g><g clip-rule="nonzero" clip-path="url(#52b7b91d2c)"><g clip-rule="nonzero" clip-path="url(#5d13be500d)"><path style=" stroke:none;fill-rule:nonzero;fill:#ff6523;fill-opacity:1;" d="M 118.207031 79.332031 L 78.589844 79.332031 L 78.589844 39.714844 L 118.207031 39.714844 Z M 118.207031 79.332031 "/></g></g><g clip-rule="nonzero" clip-path="url(#c3248756ed)"><g clip-rule="nonzero" clip-path="url(#741e6e522b)"><path style=" stroke:none;fill-rule:nonzero;fill:#ffffff;fill-opacity:1;" d="M 104.546875 65.671875 L 92.257812 65.671875 L 92.257812 53.382812 L 104.546875 53.382812 Z M 104.546875 65.671875 "/></g></g><g style="fill:#000000;fill-opacity:1;"><g transform="translate(130.956337, 74.626856)"><path style="stroke:none" d="M 18.28125 0.75 C 15.375 0.75 12.773438 0.0390625 10.484375 -1.375 C 8.191406 -2.789062 6.378906 -4.722656 5.046875 -7.171875 C 3.722656 -9.628906 3.0625 -12.421875 3.0625 -15.546875 C 3.0625 -18.660156 3.722656 -21.429688 5.046875 -23.859375 C 6.378906 -26.296875 8.191406 -28.210938 10.484375 -29.609375 C 12.773438 -31.003906 15.375 -31.703125 18.28125 -31.703125 C 20.613281 -31.703125 22.648438 -31.265625 24.390625 -30.390625 C 26.140625 -29.515625 27.554688 -28.285156 28.640625 -26.703125 L 28.640625 -44.9375 L 36.625 -44.9375 L 36.625 0 L 29.515625 0 L 28.640625 -4.4375 C 27.640625 -3.0625 26.316406 -1.851562 24.671875 -0.8125 C 23.035156 0.226562 20.90625 0.75 18.28125 0.75 Z M 19.96875 -6.234375 C 22.550781 -6.234375 24.660156 -7.097656 26.296875 -8.828125 C 27.941406 -10.554688 28.765625 -12.773438 28.765625 -15.484375 C 28.765625 -18.179688 27.941406 -20.394531 26.296875 -22.125 C 24.660156 -23.851562 22.550781 -24.71875 19.96875 -24.71875 C 17.425781 -24.71875 15.320312 -23.863281 13.65625 -22.15625 C 12 -20.445312 11.171875 -18.242188 11.171875 -15.546875 C 11.171875 -12.835938 12 -10.609375 13.65625 -8.859375 C 15.320312 -7.109375 17.425781 -6.234375 19.96875 -6.234375 Z M 19.96875 -6.234375 "/></g></g><g style="fill:#000000;fill-opacity:1;"><g transform="translate(171.638537, 74.626856)"><path style="stroke:none" d="M 19.09375 0.75 C 15.976562 0.75 13.210938 0.0820312 10.796875 -1.25 C 8.378906 -2.582031 6.484375 -4.453125 5.109375 -6.859375 C 3.742188 -9.273438 3.0625 -12.066406 3.0625 -15.234375 C 3.0625 -18.429688 3.734375 -21.273438 5.078125 -23.765625 C 6.429688 -26.265625 8.304688 -28.210938 10.703125 -29.609375 C 13.097656 -31.003906 15.914062 -31.703125 19.15625 -31.703125 C 22.195312 -31.703125 24.878906 -31.035156 27.203125 -29.703125 C 29.535156 -28.367188 31.359375 -26.546875 32.671875 -24.234375 C 33.984375 -21.929688 34.640625 -19.363281 34.640625 -16.53125 C 34.640625 -16.070312 34.628906 -15.59375 34.609375 -15.09375 C 34.585938 -14.601562 34.554688 -14.085938 34.515625 -13.546875 L 10.984375 -13.546875 C 11.148438 -11.128906 11.988281 -9.234375 13.5 -7.859375 C 15.019531 -6.484375 16.863281 -5.796875 19.03125 -5.796875 C 20.65625 -5.796875 22.019531 -6.160156 23.125 -6.890625 C 24.226562 -7.617188 25.050781 -8.566406 25.59375 -9.734375 L 33.703125 -9.734375 C 33.117188 -7.773438 32.148438 -5.992188 30.796875 -4.390625 C 29.441406 -2.796875 27.773438 -1.539062 25.796875 -0.625 C 23.828125 0.289062 21.59375 0.75 19.09375 0.75 Z M 19.15625 -25.21875 C 17.195312 -25.21875 15.46875 -24.664062 13.96875 -23.5625 C 12.476562 -22.457031 11.523438 -20.78125 11.109375 -18.53125 L 26.515625 -18.53125 C 26.390625 -20.570312 25.640625 -22.195312 24.265625 -23.40625 C 22.898438 -24.613281 21.195312 -25.21875 19.15625 -25.21875 Z M 19.15625 -25.21875 "/></g></g><g style="fill:#000000;fill-opacity:1;"><g transform="translate(207.703353, 74.626856)"><path style="stroke:none" d="M 12.421875 0 L 1.0625 -30.953125 L 9.421875 -30.953125 L 17.28125 -7.546875 L 25.15625 -30.953125 L 33.515625 -30.953125 L 22.09375 0 Z M 12.421875 0 "/></g></g><g style="fill:#000000;fill-opacity:1;"><g transform="translate(242.208348, 74.626856)"><path style="stroke:none" d="M 8.359375 -35.765625 C 6.898438 -35.765625 5.703125 -36.195312 4.765625 -37.0625 C 3.835938 -37.9375 3.375 -39.039062 3.375 -40.375 C 3.375 -41.707031 3.835938 -42.800781 4.765625 -43.65625 C 5.703125 -44.507812 6.898438 -44.9375 8.359375 -44.9375 C 9.816406 -44.9375 11.015625 -44.507812 11.953125 -43.65625 C 12.890625 -42.800781 13.359375 -41.707031 13.359375 -40.375 C 13.359375 -39.039062 12.890625 -37.9375 11.953125 -37.0625 C 11.015625 -36.195312 9.816406 -35.765625 8.359375 -35.765625 Z M 4.375 0 L 4.375 -30.953125 L 12.359375 -30.953125 L 12.359375 0 Z M 4.375 0 "/></g></g><g style="fill:#000000;fill-opacity:1;"><g transform="translate(258.868076, 74.626856)"><path style="stroke:none" d="M 4.0625 0 L 4.0625 -30.953125 L 11.109375 -30.953125 L 11.734375 -25.71875 C 12.691406 -27.539062 14.070312 -28.992188 15.875 -30.078125 C 17.6875 -31.160156 19.820312 -31.703125 22.28125 -31.703125 C 26.101562 -31.703125 29.078125 -30.492188 31.203125 -28.078125 C 33.328125 -25.671875 34.390625 -22.132812 34.390625 -17.46875 L 34.390625 0 L 26.390625 0 L 26.390625 -16.71875 C 26.390625 -19.382812 25.847656 -21.425781 24.765625 -22.84375 C 23.691406 -24.257812 22.007812 -24.96875 19.71875 -24.96875 C 17.46875 -24.96875 15.625 -24.175781 14.1875 -22.59375 C 12.757812 -21.007812 12.046875 -18.800781 12.046875 -15.96875 L 12.046875 0 Z M 4.0625 0 "/></g></g><g style="fill:#000000;fill-opacity:1;"><g transform="translate(296.804848, 74.626856)"><path style="stroke:none" d="M 8.359375 -35.765625 C 6.898438 -35.765625 5.703125 -36.195312 4.765625 -37.0625 C 3.835938 -37.9375 3.375 -39.039062 3.375 -40.375 C 3.375 -41.707031 3.835938 -42.800781 4.765625 -43.65625 C 5.703125 -44.507812 6.898438 -44.9375 8.359375 -44.9375 C 9.816406 -44.9375 11.015625 -44.507812 11.953125 -43.65625 C 12.890625 -42.800781 13.359375 -41.707031 13.359375 -40.375 C 13.359375 -39.039062 12.890625 -37.9375 11.953125 -37.0625 C 11.015625 -36.195312 9.816406 -35.765625 8.359375 -35.765625 Z M 4.375 0 L 4.375 -30.953125 L 12.359375 -30.953125 L 12.359375 0 Z M 4.375 0 "/></g></g><g style="fill:#000000;fill-opacity:1;"><g transform="translate(313.464576, 74.626856)"><path style="stroke:none" d="M 17.84375 0 C 14.601562 0 12.003906 -0.789062 10.046875 -2.375 C 8.085938 -3.957031 7.109375 -6.765625 7.109375 -10.796875 L 7.109375 -24.28125 L 1.8125 -24.28125 L 1.8125 -30.953125 L 7.109375 -30.953125 L 8.046875 -39.25 L 15.109375 -39.25 L 15.109375 -30.953125 L 23.46875 -30.953125 L 23.46875 -24.28125 L 15.109375 -24.28125 L 15.109375 -10.734375 C 15.109375 -9.234375 15.425781 -8.203125 16.0625 -7.640625 C 16.707031 -7.078125 17.820312 -6.796875 19.40625 -6.796875 L 23.28125 -6.796875 L 23.28125 0 Z M 17.84375 0 "/></g></g><g style="fill:#000000;fill-opacity:1;"><g transform="translate(339.733301, 74.626856)"><path style="stroke:none" d="M 7.921875 13.734375 L 15.109375 -2.0625 L 13.234375 -2.0625 L 1.1875 -30.953125 L 9.859375 -30.953125 L 18.53125 -9.171875 L 27.578125 -30.953125 L 36.078125 -30.953125 L 16.40625 13.734375 Z M 7.921875 13.734375 "/></g></g></g></svg>