<svg xmlns="http://www.w3.org/2000/svg" xmlns:xlink="http://www.w3.org/1999/xlink" width="500" zoomAndPan="magnify" viewBox="0 0 375 374.999991" height="500" preserveAspectRatio="xMidYMid meet" version="1.2"><defs><clipPath id="b793d493c5"><path d="M 63 62 L 186 62 L 186 182 L 63 182 Z M 63 62 "/></clipPath><clipPath id="2069bd8714"><path d="M 63.875 141.332031 L 147.59375 62.617188 L 185.144531 102.554688 L 101.421875 181.269531 Z M 63.875 141.332031 "/></clipPath><clipPath id="7110cd05d8"><path d="M 124.507812 0 L 249.753906 0 L 249.753906 125.246094 L 124.507812 125.246094 Z M 124.507812 0 "/></clipPath><clipPath id="9a06f9f530"><path d="M 187.128906 0 C 152.542969 0 124.507812 28.039062 124.507812 62.625 C 124.507812 97.210938 152.542969 125.246094 187.128906 125.246094 C 221.714844 125.246094 249.753906 97.210938 249.753906 62.625 C 249.753906 28.039062 221.714844 0 187.128906 0 Z M 187.128906 0 "/></clipPath><clipPath id="63c0fab8f9"><path d="M 1.25 118.652344 L 126.496094 118.652344 L 126.496094 243.898438 L 1.25 243.898438 Z M 1.25 118.652344 "/></clipPath><clipPath id="c041d86d1e"><path d="M 63.871094 118.652344 C 29.285156 118.652344 1.25 146.691406 1.25 181.277344 C 1.25 215.863281 29.285156 243.898438 63.871094 243.898438 C 98.457031 243.898438 126.496094 215.863281 126.496094 181.277344 C 126.496094 146.691406 98.457031 118.652344 63.871094 118.652344 Z M 63.871094 118.652344 "/></clipPath><clipPath id="70d8641046"><path d="M 44.445312 161.851562 L 83.296875 161.851562 L 83.296875 200.703125 L 44.445312 200.703125 Z M 44.445312 161.851562 "/></clipPath><clipPath id="19383acbdd"><path d="M 63.871094 161.851562 C 53.144531 161.851562 44.445312 170.546875 44.445312 181.277344 C 44.445312 192.003906 53.144531 200.703125 63.871094 200.703125 C 74.601562 200.703125 83.296875 192.003906 83.296875 181.277344 C 83.296875 170.546875 74.601562 161.851562 63.871094 161.851562 Z M 63.871094 161.851562 "/></clipPath><clipPath id="723c1344c0"><path d="M 191 187 L 313 187 L 313 307 L 191 307 Z M 191 187 "/></clipPath><clipPath id="805e2b558c"><path d="M 312.363281 227.804688 L 228.644531 306.519531 L 191.09375 266.582031 L 274.8125 187.867188 Z M 312.363281 227.804688 "/></clipPath><clipPath id="3303e1beb9"><path d="M 126.488281 243.890625 L 251.734375 243.890625 L 251.734375 369.136719 L 126.488281 369.136719 Z M 126.488281 243.890625 "/></clipPath><clipPath id="a42162b24f"><path d="M 189.109375 369.136719 C 223.695312 369.136719 251.734375 341.101562 251.734375 306.515625 C 251.734375 271.929688 223.695312 243.890625 189.109375 243.890625 C 154.523438 243.890625 126.488281 271.929688 126.488281 306.515625 C 126.488281 341.101562 154.523438 369.136719 189.109375 369.136719 Z M 189.109375 369.136719 "/></clipPath><clipPath id="0ec92bdf14"><path d="M 249.746094 125.238281 L 374.992188 125.238281 L 374.992188 250.484375 L 249.746094 250.484375 Z M 249.746094 125.238281 "/></clipPath><clipPath id="69f903b3d7"><path d="M 312.367188 250.484375 C 346.953125 250.484375 374.992188 222.449219 374.992188 187.863281 C 374.992188 153.277344 346.953125 125.238281 312.367188 125.238281 C 277.78125 125.238281 249.746094 153.277344 249.746094 187.863281 C 249.746094 222.449219 277.78125 250.484375 312.367188 250.484375 Z M 312.367188 250.484375 "/></clipPath><clipPath id="ab0752fe98"><path d="M 292.949219 168.441406 L 331.800781 168.441406 L 331.800781 207.292969 L 292.949219 207.292969 Z M 292.949219 168.441406 "/></clipPath><clipPath id="a24d21edd9"><path d="M 312.375 207.292969 C 323.101562 207.292969 331.800781 198.59375 331.800781 187.867188 C 331.800781 177.140625 323.101562 168.441406 312.375 168.441406 C 301.644531 168.441406 292.949219 177.140625 292.949219 187.867188 C 292.949219 198.59375 301.644531 207.292969 312.375 207.292969 Z M 312.375 207.292969 "/></clipPath></defs><g id="9d094bf5b7"><g clip-rule="nonzero" clip-path="url(#b793d493c5)"><g clip-rule="nonzero" clip-path="url(#2069bd8714)"><path style=" stroke:none;fill-rule:nonzero;fill:#ff6523;fill-opacity:1;" d="M 63.875 141.332031 L 147.648438 62.566406 L 185.199219 102.503906 L 101.421875 181.269531 Z M 63.875 141.332031 "/></g></g><g clip-rule="nonzero" clip-path="url(#7110cd05d8)"><g clip-rule="nonzero" clip-path="url(#9a06f9f530)"><path style=" stroke:none;fill-rule:nonzero;fill:#ff6523;fill-opacity:1;" d="M 124.507812 0 L 249.753906 0 L 249.753906 125.246094 L 124.507812 125.246094 Z M 124.507812 0 "/></g></g><g clip-rule="nonzero" clip-path="url(#63c0fab8f9)"><g clip-rule="nonzero" clip-path="url(#c041d86d1e)"><path style=" stroke:none;fill-rule:nonzero;fill:#ff6523;fill-opacity:1;" d="M 1.25 118.652344 L 126.496094 118.652344 L 126.496094 243.898438 L 1.25 243.898438 Z M 1.25 118.652344 "/></g></g><g clip-rule="nonzero" clip-path="url(#70d8641046)"><g clip-rule="nonzero" clip-path="url(#19383acbdd)"><path style=" stroke:none;fill-rule:nonzero;fill:#ffffff;fill-opacity:1;" d="M 44.445312 161.851562 L 83.296875 161.851562 L 83.296875 200.703125 L 44.445312 200.703125 Z M 44.445312 161.851562 "/></g></g><g clip-rule="nonzero" clip-path="url(#723c1344c0)"><g clip-rule="nonzero" clip-path="url(#805e2b558c)"><path style=" stroke:none;fill-rule:nonzero;fill:#ff6523;fill-opacity:1;" d="M 312.363281 227.804688 L 228.585938 306.570312 L 191.039062 266.632812 L 274.8125 187.867188 Z M 312.363281 227.804688 "/></g></g><g clip-rule="nonzero" clip-path="url(#3303e1beb9)"><g clip-rule="nonzero" clip-path="url(#a42162b24f)"><path style=" stroke:none;fill-rule:nonzero;fill:#ff6523;fill-opacity:1;" d="M 251.734375 369.136719 L 126.488281 369.136719 L 126.488281 243.890625 L 251.734375 243.890625 Z M 251.734375 369.136719 "/></g></g><g clip-rule="nonzero" clip-path="url(#0ec92bdf14)"><g clip-rule="nonzero" clip-path="url(#69f903b3d7)"><path style=" stroke:none;fill-rule:nonzero;fill:#ff6523;fill-opacity:1;" d="M 374.992188 250.484375 L 249.746094 250.484375 L 249.746094 125.238281 L 374.992188 125.238281 Z M 374.992188 250.484375 "/></g></g><g clip-rule="nonzero" clip-path="url(#ab0752fe98)"><g clip-rule="nonzero" clip-path="url(#a24d21edd9)"><path style=" stroke:none;fill-rule:nonzero;fill:#ffffff;fill-opacity:1;" d="M 331.800781 207.292969 L 292.949219 207.292969 L 292.949219 168.441406 L 331.800781 168.441406 Z M 331.800781 207.292969 "/></g></g></g></svg>